# xmcd
#
# Track frame offsets: 
#        150
#        11772
#        28225
#        41070
#        56107
#        68960
#        81180
#        92825
#        104467
#        120892
#        136460
#        148145
#        159515
#        173542
#        185727
#        200187
#        210662
#        222432
#
# Disc length: 3116 seconds
#
# Revision: 3
# Processed by: cddbd v1.5.1PL2 Copyright (c) Steve Scherf et al.
# Submitted via: ExactAudioCopy v0.95b4
#
DISCID=140c2a12
DTITLE=The Drifters - Save The Last Dance For Me
DYEAR=1997
DGENRE=Oldies
TTITLE0=Save The Last Dance For Me
TTITLE1=Unchained Melody
TTITLE2=(Sittin' On The) Dock Of The Bay
TTITLE3=Third Rate Romance
TTITLE4=You Send Me
TTITLE5=Under The Boardwalk
TTITLE6=Up On The Roof
TTITLE7=Saturday Night At The Movies
TTITLE8=Cupid
TTITLE9=If Loving You Is Wrong (I Don't Want To Be Right)
TTITLE10=Some Kind Of Wonderful
TTITLE11=Love Me Like A Rock
TTITLE12=Summertime
TTITLE13=Bring It Home To Me
TTITLE14=Tie A Yellow Ribbon Round The Old Oak Tree
TTITLE15=Hello Josephine (My Girl Josephine)
TTITLE16=Sweets For My Sweet
TTITLE17=What'd I Say
EXTD=
EXTT0=
EXTT1=
EXTT2=
EXTT3=
EXTT4=
EXTT5=
EXTT6=
EXTT7=
EXTT8=
EXTT9=
EXTT10=
EXTT11=
EXTT12=
EXTT13=
EXTT14=
EXTT15=
EXTT16=
EXTT17=
PLAYORDER=
